<svg width="318" height="116" viewBox="0 0 318 116" fill="none" xmlns="http://www.w3.org/2000/svg">
<g filter="url(#filter0_d_1252_105)">
<rect x="4" width="306" height="108" fill="black"/>
<rect x="5" y="1" width="304" height="106" stroke="white" stroke-width="2"/>
</g>
<g filter="url(#filter1_b_1252_105)">
<path d="M30.128 29.816V33.848L16.112 41C15.056 41.48 14.336 41.72 13.952 41.72V41.912C14.272 41.912 14.992 42.152 16.112 42.632L30.128 49.976V53.96L10.64 43.784V40.232L30.128 29.816ZM54.83 41.24H50.798V40.328C50.798 39.848 50.766 39.544 50.702 39.416C50.67 39.256 50.51 39.064 50.222 38.84C49.934 38.616 49.71 38.488 49.55 38.456C49.39 38.392 49.022 38.36 48.446 38.36H42.014C41.438 38.36 41.07 38.392 40.91 38.456C40.75 38.488 40.526 38.616 40.238 38.84C39.95 39.064 39.774 39.256 39.71 39.416C39.678 39.544 39.662 39.848 39.662 40.328V53.672C39.662 54.152 39.678 54.472 39.71 54.632C39.774 54.76 39.95 54.936 40.238 55.16C40.526 55.384 40.75 55.528 40.91 55.592C41.07 55.624 41.438 55.64 42.014 55.64H48.446C49.022 55.64 49.39 55.624 49.55 55.592C49.71 55.528 49.934 55.384 50.222 55.16C50.51 54.936 50.67 54.76 50.702 54.632C50.766 54.472 50.798 54.152 50.798 53.672V52.76H54.83V54.68C54.83 55.64 54.446 56.44 53.678 57.08L52.526 58.04C51.758 58.68 50.99 59 50.222 59H40.238C39.47 59 38.702 58.68 37.934 58.04L36.782 57.08C36.014 56.44 35.63 55.64 35.63 54.68V39.32C35.63 38.36 36.014 37.56 36.782 36.92L37.934 35.96C38.702 35.32 39.47 35 40.238 35H50.222C50.99 35 51.758 35.32 52.526 35.96L53.678 36.92C54.446 37.56 54.83 38.36 54.83 39.32V41.24ZM64.9891 35H76.5091C77.2771 35 78.0451 35.32 78.8131 35.96L79.9651 36.92C80.7331 37.56 81.1171 38.36 81.1171 39.32V54.68C81.1171 55.64 80.7331 56.44 79.9651 57.08L78.8131 58.04C78.0451 58.68 77.2771 59 76.5091 59H64.9891C64.2211 59 63.4531 58.68 62.6851 58.04L61.5331 57.08C60.7651 56.44 60.3811 55.64 60.3811 54.68V39.32C60.3811 38.36 60.7651 37.56 61.5331 36.92L62.6851 35.96C63.4531 35.32 64.2211 35 64.9891 35ZM77.0851 53.672V40.328C77.0851 39.848 77.0531 39.544 76.9891 39.416C76.9571 39.256 76.7971 39.064 76.5091 38.84C76.2211 38.616 75.9971 38.488 75.8371 38.456C75.6771 38.392 75.3091 38.36 74.7331 38.36H66.7651C66.1891 38.36 65.8211 38.392 65.6611 38.456C65.5011 38.488 65.2771 38.616 64.9891 38.84C64.7011 39.064 64.5251 39.256 64.4611 39.416C64.4291 39.544 64.4131 39.848 64.4131 40.328V53.672C64.4131 54.152 64.4291 54.472 64.4611 54.632C64.5251 54.76 64.7011 54.936 64.9891 55.16C65.2771 55.384 65.5011 55.528 65.6611 55.592C65.8211 55.624 66.1891 55.64 66.7651 55.64H74.7331C75.3091 55.64 75.6771 55.624 75.8371 55.592C75.9971 55.528 76.2211 55.384 76.5091 55.16C76.7971 54.936 76.9571 54.76 76.9891 54.632C77.0531 54.472 77.0851 54.152 77.0851 53.672ZM100.159 38.36H93.2953C92.7193 38.36 92.3513 38.392 92.1913 38.456C92.0313 38.488 91.8073 38.616 91.5193 38.84C91.2313 39.064 91.0553 39.256 90.9913 39.416C90.9593 39.544 90.9433 39.848 90.9433 40.328V53.672C90.9433 54.152 90.9593 54.472 90.9913 54.632C91.0553 54.76 91.2313 54.936 91.5193 55.16C91.8073 55.384 92.0313 55.528 92.1913 55.592C92.3513 55.624 92.7193 55.64 93.2953 55.64H100.111C100.687 55.64 101.071 55.608 101.263 55.544C101.487 55.48 101.887 55.272 102.463 54.92C103.039 54.568 103.375 54.312 103.471 54.152C103.567 53.992 103.615 53.672 103.615 53.192V41.24C103.615 40.6 103.231 39.96 102.463 39.32C101.695 38.68 100.927 38.36 100.159 38.36ZM100.687 59H91.5193C90.7513 59 89.9833 58.68 89.2153 58.04L88.0633 57.08C87.2953 56.44 86.9113 55.64 86.9113 54.68V39.32C86.9113 38.36 87.2953 37.56 88.0633 36.92L89.2153 35.96C89.9833 35.32 90.7513 35 91.5193 35H99.9673C100.735 35 101.503 35.32 102.271 35.96C103.039 36.728 103.423 37.208 103.423 37.4H103.615V23.48H107.647V53.672C107.647 54.152 107.663 54.472 107.695 54.632C107.759 54.76 107.935 54.936 108.223 55.16C108.511 55.384 108.671 55.576 108.703 55.736C108.767 55.864 108.799 56.168 108.799 56.648V59H107.119C106.543 59 106.143 58.968 105.919 58.904C105.727 58.808 105.439 58.6 105.055 58.28C104.543 57.864 104.287 57.464 104.287 57.08H104.095C104.095 57.464 103.743 57.864 103.039 58.28C102.463 58.632 102.063 58.84 101.839 58.904C101.647 58.968 101.263 59 100.687 59ZM132.616 54.68L135.496 57.08L134.344 58.04C133.768 58.52 133.368 58.808 133.144 58.904C132.952 58.968 132.568 59 131.992 59H119.176C118.408 59 117.64 58.68 116.872 58.04L115.72 57.08C114.952 56.44 114.568 55.64 114.568 54.68V39.32C114.568 38.36 114.952 37.56 115.72 36.92L116.872 35.96C117.64 35.32 118.408 35 119.176 35H130.36C131 35 131.768 35.32 132.664 35.96L133.864 36.92C134.632 37.496 135.016 38.296 135.016 39.32V49.16H118.6V53.672C118.6 54.152 118.616 54.472 118.648 54.632C118.712 54.76 118.888 54.936 119.176 55.16C119.464 55.384 119.688 55.528 119.848 55.592C120.008 55.624 120.376 55.64 120.952 55.64H130.264C130.84 55.64 131.224 55.608 131.416 55.544C131.64 55.448 132.04 55.16 132.616 54.68ZM130.984 46.04V40.328C130.984 39.848 130.952 39.544 130.888 39.416C130.856 39.256 130.696 39.064 130.408 38.84C130.12 38.616 129.896 38.488 129.736 38.456C129.576 38.392 129.208 38.36 128.632 38.36H120.952C120.376 38.36 120.008 38.392 119.848 38.456C119.688 38.488 119.464 38.616 119.176 38.84C118.888 39.064 118.712 39.256 118.648 39.416C118.616 39.544 118.6 39.848 118.6 40.328V46.04H130.984ZM146.531 28.28L146.387 28.328C146.611 29.096 146.723 29.864 146.723 30.632V59H142.691V25.4H149.219L159.491 52.232C159.683 52.776 159.779 53.224 159.779 53.576H159.971C159.971 53.224 160.067 52.776 160.259 52.232L170.579 25.4H177.059V59H173.027V30.632C173.027 29.864 173.139 29.096 173.363 28.328L173.219 28.28L161.411 59H158.339C156.867 55.384 155.459 51.88 154.115 48.488C152.803 45.096 151.715 42.264 150.851 39.992C149.987 37.688 149.235 35.672 148.595 33.944C147.955 32.184 147.459 30.824 147.107 29.864C146.755 28.904 146.563 28.376 146.531 28.28ZM184.259 59L195.779 25.4H201.443L213.203 59H209.171L206.675 52.04H190.691L188.291 59H184.259ZM198.707 28.28H198.515C198.515 28.664 198.403 29.128 198.179 29.672L191.699 48.92H205.667L199.043 29.672C198.819 29.128 198.707 28.664 198.707 28.28ZM220.409 25.4H238.169C238.937 25.4 239.705 25.72 240.473 26.36L241.625 27.32C242.393 27.96 242.777 28.76 242.777 29.72V40.952C242.777 41.944 242.377 42.776 241.577 43.448L240.377 44.456C239.673 45.032 238.937 45.32 238.169 45.32H235.481L240.425 53C240.777 53.544 241.017 53.896 241.145 54.056C241.305 54.184 241.641 54.392 242.153 54.68L242.681 54.968C243.257 55.288 243.593 55.544 243.689 55.736C243.785 55.928 243.833 56.392 243.833 57.128V59H242.633C242.057 59 241.657 58.968 241.433 58.904C241.241 58.84 240.889 58.632 240.377 58.28L239.465 57.656C238.761 57.176 238.185 56.552 237.737 55.784L231.353 45.56H224.441V59H220.409V25.4ZM224.441 28.76V42.2H236.393C236.969 42.2 237.337 42.184 237.497 42.152C237.657 42.088 237.881 41.944 238.169 41.72C238.457 41.496 238.617 41.32 238.649 41.192C238.713 41.032 238.745 40.712 238.745 40.232V30.728C238.745 30.248 238.713 29.944 238.649 29.816C238.617 29.656 238.457 29.464 238.169 29.24C237.881 29.016 237.657 28.888 237.497 28.856C237.337 28.792 236.969 28.76 236.393 28.76H224.441ZM250.306 59L261.826 25.4H267.49L279.25 59H275.218L272.722 52.04H256.738L254.338 59H250.306ZM264.754 28.28H264.562C264.562 28.664 264.45 29.128 264.226 29.672L257.746 48.92H271.714L265.09 29.672C264.866 29.128 264.754 28.664 264.754 28.28ZM284.296 33.848V29.816L303.784 40.232V43.784L284.296 53.96V49.976L298.312 42.632C299.432 42.152 300.152 41.912 300.472 41.912V41.72C300.088 41.72 299.368 41.48 298.312 41L284.296 33.848Z" fill="white"/>
</g>
<path d="M60.688 74.32H58.672V73.864C58.672 73.624 58.656 73.472 58.624 73.408C58.608 73.328 58.528 73.232 58.384 73.12C58.24 73.008 58.128 72.944 58.048 72.928C57.968 72.896 57.784 72.88 57.496 72.88H51.592C51.304 72.88 51.12 72.896 51.04 72.928C50.96 72.944 50.848 73.008 50.704 73.12C50.56 73.232 50.472 73.328 50.44 73.408C50.424 73.472 50.416 73.624 50.416 73.864V85.336C50.416 85.576 50.424 85.736 50.44 85.816C50.472 85.88 50.56 85.968 50.704 86.08C50.848 86.192 50.96 86.264 51.04 86.296C51.12 86.312 51.304 86.32 51.592 86.32H57.496C57.784 86.32 57.968 86.312 58.048 86.296C58.128 86.264 58.24 86.192 58.384 86.08C58.528 85.968 58.608 85.88 58.624 85.816C58.656 85.736 58.672 85.576 58.672 85.336V81.04H55.024V79.36H60.688V85.84C60.688 86.32 60.496 86.72 60.112 87.04L59.536 87.52C59.152 87.84 58.768 88 58.384 88H50.704C50.32 88 49.936 87.84 49.552 87.52L48.976 87.04C48.592 86.72 48.4 86.32 48.4 85.84V73.36C48.4 72.88 48.592 72.48 48.976 72.16L49.552 71.68C49.936 71.36 50.32 71.2 50.704 71.2H58.384C58.768 71.2 59.152 71.36 59.536 71.68L60.112 72.16C60.496 72.48 60.688 72.88 60.688 73.36V74.32ZM64.8766 71.2H66.8926V88H64.8766V71.2ZM79.3769 80.32H73.6409C73.2569 80.32 72.8729 80.16 72.4889 79.84L71.8409 79.288C71.5049 79.016 71.3369 78.696 71.3369 78.328V73.36C71.3369 72.88 71.5289 72.48 71.9129 72.16L72.4889 71.68C72.8729 71.36 73.2569 71.2 73.6409 71.2H80.0249C80.4089 71.2 80.7929 71.36 81.1769 71.68L81.7529 72.16C82.1369 72.48 82.3289 72.88 82.3289 73.36V74.32H80.3129V73.864C80.3129 73.624 80.2969 73.472 80.2649 73.408C80.2489 73.328 80.1689 73.232 80.0249 73.12C79.8809 73.008 79.7689 72.944 79.6889 72.928C79.6089 72.896 79.4249 72.88 79.1369 72.88H74.5289C74.2409 72.88 74.0569 72.896 73.9769 72.928C73.8969 72.944 73.7849 73.008 73.6409 73.12C73.4969 73.232 73.4089 73.328 73.3769 73.408C73.3609 73.472 73.3529 73.624 73.3529 73.864V77.656C73.3529 77.896 73.3609 78.056 73.3769 78.136C73.4089 78.2 73.4969 78.288 73.6409 78.4C73.7849 78.512 73.8969 78.584 73.9769 78.616C74.0569 78.632 74.2409 78.64 74.5289 78.64H80.2649C80.6489 78.64 81.0329 78.8 81.4169 79.12L81.9929 79.6C82.3769 79.92 82.5689 80.32 82.5689 80.8V85.84C82.5689 86.32 82.3769 86.72 81.9929 87.04L81.4169 87.52C81.0329 87.84 80.6489 88 80.2649 88H73.4009C73.0169 88 72.6329 87.84 72.2489 87.52L71.6729 87.04C71.2889 86.72 71.0969 86.32 71.0969 85.84V84.88H73.1129V85.336C73.1129 85.576 73.1209 85.736 73.1369 85.816C73.1689 85.88 73.2569 85.968 73.4009 86.08C73.5449 86.192 73.6569 86.264 73.7369 86.296C73.8169 86.312 74.0009 86.32 74.2889 86.32H79.3769C79.6649 86.32 79.8489 86.312 79.9289 86.296C80.0089 86.264 80.1209 86.192 80.2649 86.08C80.4089 85.968 80.4889 85.88 80.5049 85.816C80.5369 85.736 80.5529 85.576 80.5529 85.336V81.304C80.5529 81.064 80.5369 80.912 80.5049 80.848C80.4889 80.768 80.4089 80.672 80.2649 80.56C80.1209 80.448 80.0089 80.384 79.9289 80.368C79.8489 80.336 79.6649 80.32 79.3769 80.32ZM104.359 79.36V85.84C104.359 86.16 104.327 86.384 104.263 86.512C104.215 86.64 104.095 86.808 103.903 87.016L103.471 87.448C103.103 87.816 102.727 88 102.343 88H94.4232C94.0392 88 93.6632 87.816 93.2952 87.448L92.8632 87.016C92.7352 86.872 92.6392 86.768 92.5752 86.704C92.5272 86.624 92.4872 86.52 92.4552 86.392C92.4232 86.248 92.4072 86.064 92.4072 85.84V80.704C92.4072 80.32 92.4232 80.08 92.4552 79.984C92.5032 79.888 92.6472 79.744 92.8872 79.552L93.8712 78.736C94.1432 78.512 94.3592 78.4 94.5192 78.4H95.4792V78.304C95.2712 78.288 95.0552 78.168 94.8312 77.944L94.1352 77.368C93.9272 77.208 93.7992 77.088 93.7512 77.008C93.7192 76.928 93.7032 76.752 93.7032 76.48V73.36C93.7032 72.88 93.8952 72.48 94.2792 72.16L94.8552 71.68C95.2392 71.36 95.6232 71.2 96.0072 71.2H101.431C101.815 71.2 102.199 71.36 102.583 71.68L103.159 72.16C103.543 72.48 103.735 72.88 103.735 73.36V74.32H101.719V73.864C101.719 73.624 101.703 73.472 101.671 73.408C101.655 73.328 101.575 73.232 101.431 73.12C101.287 73.008 101.175 72.944 101.095 72.928C101.015 72.896 100.823 72.88 100.519 72.88H96.8952C96.6072 72.88 96.4232 72.896 96.3432 72.928C96.2632 72.944 96.1512 73.008 96.0072 73.12C95.8632 73.232 95.7752 73.328 95.7432 73.408C95.7272 73.472 95.7192 73.624 95.7192 73.864V76.12C95.7192 76.424 95.7352 76.624 95.7672 76.72C95.8152 76.8 95.9592 76.936 96.1992 77.128C96.5032 77.384 96.7272 77.544 96.8712 77.608C97.0152 77.656 97.2792 77.68 97.6632 77.68H106.087V79.36H104.359ZM95.5992 86.32H101.167C101.455 86.32 101.639 86.312 101.719 86.296C101.799 86.264 101.911 86.192 102.055 86.08C102.199 85.968 102.279 85.88 102.295 85.816C102.327 85.736 102.343 85.576 102.343 85.336V79.36H96.3192C96.0152 79.36 95.8152 79.376 95.7192 79.408C95.6232 79.44 95.4552 79.56 95.2152 79.768L94.8552 80.08C94.5672 80.336 94.4232 80.64 94.4232 80.992V85.336C94.4232 85.576 94.4312 85.736 94.4472 85.816C94.4792 85.88 94.5672 85.968 94.7112 86.08C94.8552 86.192 94.9672 86.264 95.0472 86.296C95.1272 86.312 95.3112 86.32 95.5992 86.32ZM127.914 88L124.41 73.552L124.29 72.952H124.194L124.074 73.552L120.642 88H117.81L113.298 71.2H115.434L119.034 85.984L119.154 86.584H119.273L119.37 85.984L122.922 71.2H125.586L129.234 85.984L129.378 86.584H129.474L129.57 85.984L133.05 71.2H135.186L130.674 88H127.914ZM145.761 85.84L147.201 87.04L146.625 87.52C146.337 87.76 146.137 87.904 146.025 87.952C145.929 87.984 145.737 88 145.449 88H139.041C138.657 88 138.273 87.84 137.889 87.52L137.313 87.04C136.929 86.72 136.737 86.32 136.737 85.84V78.16C136.737 77.68 136.929 77.28 137.313 76.96L137.889 76.48C138.273 76.16 138.657 76 139.041 76H144.633C144.953 76 145.337 76.16 145.785 76.48L146.385 76.96C146.769 77.248 146.961 77.648 146.961 78.16V83.08H138.753V85.336C138.753 85.576 138.761 85.736 138.777 85.816C138.809 85.88 138.897 85.968 139.041 86.08C139.185 86.192 139.297 86.264 139.377 86.296C139.457 86.312 139.641 86.32 139.929 86.32H144.585C144.873 86.32 145.065 86.304 145.161 86.272C145.273 86.224 145.473 86.08 145.761 85.84ZM144.945 81.52V78.664C144.945 78.424 144.929 78.272 144.897 78.208C144.881 78.128 144.801 78.032 144.657 77.92C144.513 77.808 144.401 77.744 144.321 77.728C144.241 77.696 144.057 77.68 143.769 77.68H139.929C139.641 77.68 139.457 77.696 139.377 77.728C139.297 77.744 139.185 77.808 139.041 77.92C138.897 78.032 138.809 78.128 138.777 78.208C138.761 78.272 138.753 78.424 138.753 78.664V81.52H144.945ZM158.19 85.336V78.664C158.19 78.424 158.174 78.272 158.142 78.208C158.126 78.128 158.046 78.032 157.902 77.92C157.758 77.808 157.646 77.744 157.566 77.728C157.486 77.696 157.302 77.68 157.014 77.68H153.63C153.326 77.68 153.118 77.696 153.006 77.728C152.91 77.76 152.718 77.864 152.43 78.04C152.142 78.216 151.974 78.344 151.926 78.424C151.878 78.504 151.854 78.664 151.854 78.904V85.096C151.854 85.336 151.878 85.496 151.926 85.576C151.974 85.656 152.142 85.784 152.43 85.96C152.718 86.136 152.91 86.24 153.006 86.272C153.118 86.304 153.318 86.32 153.606 86.32H157.014C157.302 86.32 157.486 86.312 157.566 86.296C157.646 86.264 157.758 86.192 157.902 86.08C158.046 85.968 158.126 85.88 158.142 85.816C158.174 85.736 158.19 85.576 158.19 85.336ZM151.854 70.24V77.128H151.95C151.95 76.984 152.126 76.76 152.478 76.456C152.83 76.152 153.134 76 153.39 76H157.902C158.286 76 158.67 76.16 159.054 76.48L159.63 76.96C160.014 77.28 160.206 77.68 160.206 78.16V85.84C160.206 86.32 160.014 86.72 159.63 87.04L159.054 87.52C158.67 87.84 158.286 88 157.902 88H153.414C153.126 88 152.926 87.984 152.814 87.952C152.718 87.92 152.526 87.816 152.238 87.64C151.87 87.464 151.678 87.288 151.662 87.112H151.566V88H149.838V70.24H151.854ZM176.713 81.04C177.097 81.04 177.481 81.2 177.865 81.52L178.441 82C178.825 82.32 179.017 82.72 179.017 83.2V85.84C179.017 86.32 178.825 86.72 178.441 87.04L177.865 87.52C177.481 87.84 177.097 88 176.713 88H171.385C171.001 88 170.617 87.84 170.233 87.52L169.657 87.04C169.273 86.72 169.081 86.32 169.081 85.84V84.88H171.097V85.336C171.097 85.576 171.105 85.736 171.121 85.816C171.153 85.88 171.241 85.968 171.385 86.08C171.529 86.192 171.641 86.264 171.721 86.296C171.801 86.312 171.985 86.32 172.273 86.32H175.825C176.113 86.32 176.297 86.312 176.377 86.296C176.457 86.264 176.569 86.192 176.713 86.08C176.857 85.968 176.937 85.88 176.953 85.816C176.985 85.736 177.001 85.576 177.001 85.336V83.392C176.985 83.264 176.889 83.12 176.713 82.96C176.569 82.848 176.457 82.784 176.377 82.768C176.297 82.736 176.113 82.72 175.825 82.72H171.625C171.241 82.72 170.857 82.56 170.473 82.24L169.897 81.76C169.513 81.44 169.321 81.04 169.321 80.56V78.16C169.321 77.68 169.513 77.28 169.897 76.96L170.473 76.48C170.857 76.16 171.241 76 171.625 76H176.713C177.097 76 177.481 76.16 177.865 76.48L178.441 76.96C178.825 77.28 179.017 77.68 179.017 78.16V79.12H177.001V78.664C177.001 78.424 176.985 78.272 176.953 78.208C176.937 78.128 176.857 78.032 176.713 77.92C176.569 77.808 176.457 77.744 176.377 77.728C176.297 77.696 176.113 77.68 175.825 77.68H172.513C172.225 77.68 172.041 77.696 171.961 77.728C171.881 77.744 171.769 77.808 171.625 77.92C171.481 78.032 171.393 78.128 171.361 78.208C171.345 78.272 171.337 78.424 171.337 78.664V80.056C171.337 80.296 171.345 80.456 171.361 80.536C171.393 80.6 171.481 80.688 171.625 80.8C171.769 80.912 171.881 80.984 171.961 81.016C172.041 81.032 172.225 81.04 172.513 81.04H176.713ZM184.229 76H189.989C190.373 76 190.757 76.16 191.141 76.48L191.717 76.96C192.101 77.28 192.293 77.68 192.293 78.16V85.84C192.293 86.32 192.101 86.72 191.717 87.04L191.141 87.52C190.757 87.84 190.373 88 189.989 88H184.229C183.845 88 183.461 87.84 183.077 87.52L182.501 87.04C182.117 86.72 181.925 86.32 181.925 85.84V78.16C181.925 77.68 182.117 77.28 182.501 76.96L183.077 76.48C183.461 76.16 183.845 76 184.229 76ZM190.277 85.336V78.664C190.277 78.424 190.261 78.272 190.229 78.208C190.213 78.128 190.133 78.032 189.989 77.92C189.845 77.808 189.733 77.744 189.653 77.728C189.573 77.696 189.389 77.68 189.101 77.68H185.117C184.829 77.68 184.645 77.696 184.565 77.728C184.485 77.744 184.373 77.808 184.229 77.92C184.085 78.032 183.997 78.128 183.965 78.208C183.949 78.272 183.941 78.424 183.941 78.664V85.336C183.941 85.576 183.949 85.736 183.965 85.816C183.997 85.88 184.085 85.968 184.229 86.08C184.373 86.192 184.485 86.264 184.565 86.296C184.645 86.312 184.829 86.32 185.117 86.32H189.101C189.389 86.32 189.573 86.312 189.653 86.296C189.733 86.264 189.845 86.192 189.989 86.08C190.133 85.968 190.213 85.88 190.229 85.816C190.261 85.736 190.277 85.576 190.277 85.336ZM195.31 70.24H197.326V85C197.326 85.368 197.342 85.6 197.374 85.696C197.406 85.776 197.518 85.88 197.71 86.008C197.918 86.168 198.038 86.296 198.07 86.392C198.118 86.472 198.142 86.696 198.142 87.064V88H197.422C197.118 88 196.918 87.984 196.822 87.952C196.726 87.92 196.558 87.824 196.318 87.664L195.79 87.304C195.55 87.144 195.406 87.016 195.358 86.92C195.326 86.824 195.31 86.592 195.31 86.224V70.24ZM207.215 88H203.447C203.063 88 202.679 87.84 202.295 87.52L201.719 87.04C201.335 86.72 201.143 86.32 201.143 85.84V76H203.159V85.336C203.159 85.576 203.167 85.736 203.183 85.816C203.215 85.88 203.303 85.968 203.447 86.08C203.591 86.192 203.703 86.264 203.783 86.296C203.863 86.312 204.047 86.32 204.335 86.32H206.927C207.215 86.32 207.407 86.304 207.503 86.272C207.615 86.24 207.815 86.136 208.103 85.96C208.391 85.784 208.559 85.656 208.607 85.576C208.655 85.496 208.679 85.336 208.679 85.096V76H210.695V85.336C210.695 85.576 210.703 85.736 210.719 85.816C210.751 85.88 210.839 85.968 210.983 86.08C211.127 86.192 211.207 86.288 211.223 86.368C211.255 86.432 211.271 86.584 211.271 86.824V88H210.431C210.143 88 209.943 87.984 209.831 87.952C209.735 87.904 209.591 87.8 209.399 87.64C209.143 87.432 209.015 87.232 209.015 87.04H208.919C208.919 87.232 208.743 87.432 208.391 87.64C208.103 87.816 207.903 87.92 207.791 87.952C207.695 87.984 207.503 88 207.215 88ZM216.911 72.64V76H219.983C220.191 76.16 220.311 76.288 220.343 76.384C220.391 76.464 220.415 76.688 220.415 77.056V77.68H216.911V85.336C216.911 85.576 216.919 85.736 216.935 85.816C216.967 85.88 217.055 85.968 217.199 86.08C217.343 86.192 217.455 86.264 217.535 86.296C217.615 86.312 217.799 86.32 218.087 86.32H220.271C220.479 86.48 220.599 86.608 220.631 86.704C220.679 86.784 220.703 87.008 220.703 87.376V88H217.199C216.815 88 216.431 87.84 216.047 87.52L215.471 87.04C215.087 86.72 214.895 86.32 214.895 85.84V77.68H213.743C213.535 77.52 213.407 77.4 213.359 77.32C213.327 77.224 213.311 76.992 213.311 76.624V76H214.895V72.64H216.911ZM225.333 88H223.317V76H225.333V88ZM225.549 72.256V72.448C225.549 72.752 225.533 72.944 225.501 73.024C225.485 73.104 225.413 73.2 225.285 73.312C225.157 73.44 224.861 73.504 224.397 73.504H224.277C223.925 73.504 223.709 73.496 223.629 73.48C223.549 73.464 223.453 73.408 223.341 73.312C223.229 73.2 223.157 73.104 223.125 73.024C223.109 72.944 223.101 72.752 223.101 72.448V72.256C223.101 71.952 223.109 71.76 223.125 71.68C223.157 71.6 223.237 71.504 223.365 71.392C223.461 71.296 223.549 71.24 223.629 71.224C223.709 71.208 223.925 71.2 224.277 71.2H224.373C224.853 71.2 225.165 71.264 225.309 71.392C225.421 71.504 225.485 71.6 225.501 71.68C225.533 71.76 225.549 71.952 225.549 72.256ZM230.635 76H236.395C236.779 76 237.163 76.16 237.547 76.48L238.123 76.96C238.507 77.28 238.699 77.68 238.699 78.16V85.84C238.699 86.32 238.507 86.72 238.123 87.04L237.547 87.52C237.163 87.84 236.779 88 236.395 88H230.635C230.251 88 229.867 87.84 229.483 87.52L228.907 87.04C228.523 86.72 228.331 86.32 228.331 85.84V78.16C228.331 77.68 228.523 77.28 228.907 76.96L229.483 76.48C229.867 76.16 230.251 76 230.635 76ZM236.683 85.336V78.664C236.683 78.424 236.667 78.272 236.635 78.208C236.619 78.128 236.539 78.032 236.395 77.92C236.251 77.808 236.139 77.744 236.059 77.728C235.979 77.696 235.795 77.68 235.507 77.68H231.523C231.235 77.68 231.051 77.696 230.971 77.728C230.891 77.744 230.779 77.808 230.635 77.92C230.491 78.032 230.403 78.128 230.371 78.208C230.355 78.272 230.347 78.424 230.347 78.664V85.336C230.347 85.576 230.355 85.736 230.371 85.816C230.403 85.88 230.491 85.968 230.635 86.08C230.779 86.192 230.891 86.264 230.971 86.296C231.051 86.312 231.235 86.32 231.523 86.32H235.507C235.795 86.32 235.979 86.312 236.059 86.296C236.139 86.264 236.251 86.192 236.395 86.08C236.539 85.968 236.619 85.88 236.635 85.816C236.667 85.736 236.683 85.576 236.683 85.336ZM241.596 76H242.436C242.724 76 242.916 76.024 243.012 76.072C243.124 76.104 243.276 76.2 243.468 76.36C243.724 76.568 243.852 76.768 243.852 76.96H243.948C243.948 76.768 244.124 76.568 244.476 76.36C244.764 76.184 244.956 76.08 245.052 76.048C245.164 76.016 245.364 76 245.652 76H249.9C250.284 76 250.668 76.16 251.052 76.48L251.628 76.96C252.012 77.28 252.204 77.68 252.204 78.16V88H250.188V78.664C250.188 78.424 250.172 78.272 250.14 78.208C250.124 78.128 250.044 78.032 249.9 77.92C249.756 77.808 249.644 77.744 249.564 77.728C249.484 77.696 249.3 77.68 249.012 77.68H245.94C245.652 77.68 245.452 77.696 245.34 77.728C245.244 77.76 245.052 77.864 244.764 78.04C244.476 78.216 244.308 78.344 244.26 78.424C244.212 78.504 244.188 78.664 244.188 78.904V88H242.172V78.664C242.172 78.424 242.156 78.272 242.124 78.208C242.108 78.128 242.028 78.032 241.884 77.92C241.74 77.808 241.652 77.72 241.62 77.656C241.604 77.576 241.596 77.416 241.596 77.176V76ZM262.705 81.04C263.089 81.04 263.473 81.2 263.857 81.52L264.433 82C264.817 82.32 265.009 82.72 265.009 83.2V85.84C265.009 86.32 264.817 86.72 264.433 87.04L263.857 87.52C263.473 87.84 263.089 88 262.705 88H257.377C256.993 88 256.609 87.84 256.225 87.52L255.649 87.04C255.265 86.72 255.073 86.32 255.073 85.84V84.88H257.089V85.336C257.089 85.576 257.097 85.736 257.113 85.816C257.145 85.88 257.233 85.968 257.377 86.08C257.521 86.192 257.633 86.264 257.713 86.296C257.793 86.312 257.977 86.32 258.265 86.32H261.817C262.105 86.32 262.289 86.312 262.369 86.296C262.449 86.264 262.561 86.192 262.705 86.08C262.849 85.968 262.929 85.88 262.945 85.816C262.977 85.736 262.993 85.576 262.993 85.336V83.392C262.977 83.264 262.881 83.12 262.705 82.96C262.561 82.848 262.449 82.784 262.369 82.768C262.289 82.736 262.105 82.72 261.817 82.72H257.617C257.233 82.72 256.849 82.56 256.465 82.24L255.889 81.76C255.505 81.44 255.313 81.04 255.313 80.56V78.16C255.313 77.68 255.505 77.28 255.889 76.96L256.465 76.48C256.849 76.16 257.233 76 257.617 76H262.705C263.089 76 263.473 76.16 263.857 76.48L264.433 76.96C264.817 77.28 265.009 77.68 265.009 78.16V79.12H262.993V78.664C262.993 78.424 262.977 78.272 262.945 78.208C262.929 78.128 262.849 78.032 262.705 77.92C262.561 77.808 262.449 77.744 262.369 77.728C262.289 77.696 262.105 77.68 261.817 77.68H258.505C258.217 77.68 258.033 77.696 257.953 77.728C257.873 77.744 257.761 77.808 257.617 77.92C257.473 78.032 257.385 78.128 257.353 78.208C257.337 78.272 257.329 78.424 257.329 78.664V80.056C257.329 80.296 257.337 80.456 257.353 80.536C257.385 80.6 257.473 80.688 257.617 80.8C257.761 80.912 257.873 80.984 257.953 81.016C258.033 81.032 258.217 81.04 258.505 81.04H262.705Z" fill="#F5A524"/>
<defs>
<filter id="filter0_d_1252_105" x="0" y="0" width="314" height="116" filterUnits="userSpaceOnUse" color-interpolation-filters="sRGB">
<feFlood flood-opacity="0" result="BackgroundImageFix"/>
<feColorMatrix in="SourceAlpha" type="matrix" values="0 0 0 0 0 0 0 0 0 0 0 0 0 0 0 0 0 0 127 0" result="hardAlpha"/>
<feOffset dy="4"/>
<feGaussianBlur stdDeviation="2"/>
<feComposite in2="hardAlpha" operator="out"/>
<feColorMatrix type="matrix" values="0 0 0 0 0 0 0 0 0 0 0 0 0 0 0 0 0 0 0.25 0"/>
<feBlend mode="normal" in2="BackgroundImageFix" result="effect1_dropShadow_1252_105"/>
<feBlend mode="normal" in="SourceGraphic" in2="effect1_dropShadow_1252_105" result="shape"/>
</filter>
<filter id="filter1_b_1252_105" x="6.64001" y="19.48" width="301.144" height="43.52" filterUnits="userSpaceOnUse" color-interpolation-filters="sRGB">
<feFlood flood-opacity="0" result="BackgroundImageFix"/>
<feGaussianBlur in="BackgroundImageFix" stdDeviation="2"/>
<feComposite in2="SourceAlpha" operator="in" result="effect1_backgroundBlur_1252_105"/>
<feBlend mode="normal" in="SourceGraphic" in2="effect1_backgroundBlur_1252_105" result="shape"/>
</filter>
</defs>
</svg>
