<svg width="318" height="116" viewBox="0 0 318 116" fill="none" xmlns="http://www.w3.org/2000/svg">
<g filter="url(#filter0_d_1206_18488)">
<rect x="4" width="306" height="108" fill="black"/>
<rect x="5" y="1" width="304" height="106" stroke="white" stroke-width="2"/>
</g>
<g filter="url(#filter1_b_1206_18488)">
<path d="M30.128 29.816V33.848L16.112 41C15.056 41.48 14.336 41.72 13.952 41.72V41.912C14.272 41.912 14.992 42.152 16.112 42.632L30.128 49.976V53.96L10.64 43.784V40.232L30.128 29.816ZM54.83 41.24H50.798V40.328C50.798 39.848 50.766 39.544 50.702 39.416C50.67 39.256 50.51 39.064 50.222 38.84C49.934 38.616 49.71 38.488 49.55 38.456C49.39 38.392 49.022 38.36 48.446 38.36H42.014C41.438 38.36 41.07 38.392 40.91 38.456C40.75 38.488 40.526 38.616 40.238 38.84C39.95 39.064 39.774 39.256 39.71 39.416C39.678 39.544 39.662 39.848 39.662 40.328V53.672C39.662 54.152 39.678 54.472 39.71 54.632C39.774 54.76 39.95 54.936 40.238 55.16C40.526 55.384 40.75 55.528 40.91 55.592C41.07 55.624 41.438 55.64 42.014 55.64H48.446C49.022 55.64 49.39 55.624 49.55 55.592C49.71 55.528 49.934 55.384 50.222 55.16C50.51 54.936 50.67 54.76 50.702 54.632C50.766 54.472 50.798 54.152 50.798 53.672V52.76H54.83V54.68C54.83 55.64 54.446 56.44 53.678 57.08L52.526 58.04C51.758 58.68 50.99 59 50.222 59H40.238C39.47 59 38.702 58.68 37.934 58.04L36.782 57.08C36.014 56.44 35.63 55.64 35.63 54.68V39.32C35.63 38.36 36.014 37.56 36.782 36.92L37.934 35.96C38.702 35.32 39.47 35 40.238 35H50.222C50.99 35 51.758 35.32 52.526 35.96L53.678 36.92C54.446 37.56 54.83 38.36 54.83 39.32V41.24ZM64.9891 35H76.5091C77.2771 35 78.0451 35.32 78.8131 35.96L79.9651 36.92C80.7331 37.56 81.1171 38.36 81.1171 39.32V54.68C81.1171 55.64 80.7331 56.44 79.9651 57.08L78.8131 58.04C78.0451 58.68 77.2771 59 76.5091 59H64.9891C64.2211 59 63.4531 58.68 62.6851 58.04L61.5331 57.08C60.7651 56.44 60.3811 55.64 60.3811 54.68V39.32C60.3811 38.36 60.7651 37.56 61.5331 36.92L62.6851 35.96C63.4531 35.32 64.2211 35 64.9891 35ZM77.0851 53.672V40.328C77.0851 39.848 77.0531 39.544 76.9891 39.416C76.9571 39.256 76.7971 39.064 76.5091 38.84C76.2211 38.616 75.9971 38.488 75.8371 38.456C75.6771 38.392 75.3091 38.36 74.7331 38.36H66.7651C66.1891 38.36 65.8211 38.392 65.6611 38.456C65.5011 38.488 65.2771 38.616 64.9891 38.84C64.7011 39.064 64.5251 39.256 64.4611 39.416C64.4291 39.544 64.4131 39.848 64.4131 40.328V53.672C64.4131 54.152 64.4291 54.472 64.4611 54.632C64.5251 54.76 64.7011 54.936 64.9891 55.16C65.2771 55.384 65.5011 55.528 65.6611 55.592C65.8211 55.624 66.1891 55.64 66.7651 55.64H74.7331C75.3091 55.64 75.6771 55.624 75.8371 55.592C75.9971 55.528 76.2211 55.384 76.5091 55.16C76.7971 54.936 76.9571 54.76 76.9891 54.632C77.0531 54.472 77.0851 54.152 77.0851 53.672ZM100.159 38.36H93.2953C92.7193 38.36 92.3513 38.392 92.1913 38.456C92.0313 38.488 91.8073 38.616 91.5193 38.84C91.2313 39.064 91.0553 39.256 90.9913 39.416C90.9593 39.544 90.9433 39.848 90.9433 40.328V53.672C90.9433 54.152 90.9593 54.472 90.9913 54.632C91.0553 54.76 91.2313 54.936 91.5193 55.16C91.8073 55.384 92.0313 55.528 92.1913 55.592C92.3513 55.624 92.7193 55.64 93.2953 55.64H100.111C100.687 55.64 101.071 55.608 101.263 55.544C101.487 55.48 101.887 55.272 102.463 54.92C103.039 54.568 103.375 54.312 103.471 54.152C103.567 53.992 103.615 53.672 103.615 53.192V41.24C103.615 40.6 103.231 39.96 102.463 39.32C101.695 38.68 100.927 38.36 100.159 38.36ZM100.687 59H91.5193C90.7513 59 89.9833 58.68 89.2153 58.04L88.0633 57.08C87.2953 56.44 86.9113 55.64 86.9113 54.68V39.32C86.9113 38.36 87.2953 37.56 88.0633 36.92L89.2153 35.96C89.9833 35.32 90.7513 35 91.5193 35H99.9673C100.735 35 101.503 35.32 102.271 35.96C103.039 36.728 103.423 37.208 103.423 37.4H103.615V23.48H107.647V53.672C107.647 54.152 107.663 54.472 107.695 54.632C107.759 54.76 107.935 54.936 108.223 55.16C108.511 55.384 108.671 55.576 108.703 55.736C108.767 55.864 108.799 56.168 108.799 56.648V59H107.119C106.543 59 106.143 58.968 105.919 58.904C105.727 58.808 105.439 58.6 105.055 58.28C104.543 57.864 104.287 57.464 104.287 57.08H104.095C104.095 57.464 103.743 57.864 103.039 58.28C102.463 58.632 102.063 58.84 101.839 58.904C101.647 58.968 101.263 59 100.687 59ZM132.616 54.68L135.496 57.08L134.344 58.04C133.768 58.52 133.368 58.808 133.144 58.904C132.952 58.968 132.568 59 131.992 59H119.176C118.408 59 117.64 58.68 116.872 58.04L115.72 57.08C114.952 56.44 114.568 55.64 114.568 54.68V39.32C114.568 38.36 114.952 37.56 115.72 36.92L116.872 35.96C117.64 35.32 118.408 35 119.176 35H130.36C131 35 131.768 35.32 132.664 35.96L133.864 36.92C134.632 37.496 135.016 38.296 135.016 39.32V49.16H118.6V53.672C118.6 54.152 118.616 54.472 118.648 54.632C118.712 54.76 118.888 54.936 119.176 55.16C119.464 55.384 119.688 55.528 119.848 55.592C120.008 55.624 120.376 55.64 120.952 55.64H130.264C130.84 55.64 131.224 55.608 131.416 55.544C131.64 55.448 132.04 55.16 132.616 54.68ZM130.984 46.04V40.328C130.984 39.848 130.952 39.544 130.888 39.416C130.856 39.256 130.696 39.064 130.408 38.84C130.12 38.616 129.896 38.488 129.736 38.456C129.576 38.392 129.208 38.36 128.632 38.36H120.952C120.376 38.36 120.008 38.392 119.848 38.456C119.688 38.488 119.464 38.616 119.176 38.84C118.888 39.064 118.712 39.256 118.648 39.416C118.616 39.544 118.6 39.848 118.6 40.328V46.04H130.984ZM146.531 28.28L146.387 28.328C146.611 29.096 146.723 29.864 146.723 30.632V59H142.691V25.4H149.219L159.491 52.232C159.683 52.776 159.779 53.224 159.779 53.576H159.971C159.971 53.224 160.067 52.776 160.259 52.232L170.579 25.4H177.059V59H173.027V30.632C173.027 29.864 173.139 29.096 173.363 28.328L173.219 28.28L161.411 59H158.339C156.867 55.384 155.459 51.88 154.115 48.488C152.803 45.096 151.715 42.264 150.851 39.992C149.987 37.688 149.235 35.672 148.595 33.944C147.955 32.184 147.459 30.824 147.107 29.864C146.755 28.904 146.563 28.376 146.531 28.28ZM184.259 59L195.779 25.4H201.443L213.203 59H209.171L206.675 52.04H190.691L188.291 59H184.259ZM198.707 28.28H198.515C198.515 28.664 198.403 29.128 198.179 29.672L191.699 48.92H205.667L199.043 29.672C198.819 29.128 198.707 28.664 198.707 28.28ZM220.409 25.4H238.169C238.937 25.4 239.705 25.72 240.473 26.36L241.625 27.32C242.393 27.96 242.777 28.76 242.777 29.72V40.952C242.777 41.944 242.377 42.776 241.577 43.448L240.377 44.456C239.673 45.032 238.937 45.32 238.169 45.32H235.481L240.425 53C240.777 53.544 241.017 53.896 241.145 54.056C241.305 54.184 241.641 54.392 242.153 54.68L242.681 54.968C243.257 55.288 243.593 55.544 243.689 55.736C243.785 55.928 243.833 56.392 243.833 57.128V59H242.633C242.057 59 241.657 58.968 241.433 58.904C241.241 58.84 240.889 58.632 240.377 58.28L239.465 57.656C238.761 57.176 238.185 56.552 237.737 55.784L231.353 45.56H224.441V59H220.409V25.4ZM224.441 28.76V42.2H236.393C236.969 42.2 237.337 42.184 237.497 42.152C237.657 42.088 237.881 41.944 238.169 41.72C238.457 41.496 238.617 41.32 238.649 41.192C238.713 41.032 238.745 40.712 238.745 40.232V30.728C238.745 30.248 238.713 29.944 238.649 29.816C238.617 29.656 238.457 29.464 238.169 29.24C237.881 29.016 237.657 28.888 237.497 28.856C237.337 28.792 236.969 28.76 236.393 28.76H224.441ZM250.306 59L261.826 25.4H267.49L279.25 59H275.218L272.722 52.04H256.738L254.338 59H250.306ZM264.754 28.28H264.562C264.562 28.664 264.45 29.128 264.226 29.672L257.746 48.92H271.714L265.09 29.672C264.866 29.128 264.754 28.664 264.754 28.28ZM284.296 33.848V29.816L303.784 40.232V43.784L284.296 53.96V49.976L298.312 42.632C299.432 42.152 300.152 41.912 300.472 41.912V41.72C300.088 41.72 299.368 41.48 298.312 41L284.296 33.848Z" fill="white"/>
</g>
<path d="M65.976 92L62.472 77.552L62.352 76.952H62.256L62.136 77.552L58.704 92H55.872L51.36 75.2H53.496L57.096 89.984L57.216 90.584H57.336L57.432 89.984L60.984 75.2H63.648L67.296 89.984L67.44 90.584H67.536L67.632 89.984L71.112 75.2H73.248L68.736 92H65.976ZM83.8234 89.84L85.2634 91.04L84.6874 91.52C84.3994 91.76 84.1994 91.904 84.0874 91.952C83.9914 91.984 83.7994 92 83.5114 92H77.1034C76.7194 92 76.3354 91.84 75.9514 91.52L75.3754 91.04C74.9914 90.72 74.7994 90.32 74.7994 89.84V82.16C74.7994 81.68 74.9914 81.28 75.3754 80.96L75.9514 80.48C76.3354 80.16 76.7194 80 77.1034 80H82.6954C83.0154 80 83.3994 80.16 83.8474 80.48L84.4474 80.96C84.8314 81.248 85.0234 81.648 85.0234 82.16V87.08H76.8154V89.336C76.8154 89.576 76.8234 89.736 76.8394 89.816C76.8714 89.88 76.9594 89.968 77.1034 90.08C77.2474 90.192 77.3594 90.264 77.4394 90.296C77.5194 90.312 77.7034 90.32 77.9914 90.32H82.6474C82.9354 90.32 83.1274 90.304 83.2234 90.272C83.3354 90.224 83.5354 90.08 83.8234 89.84ZM83.0074 85.52V82.664C83.0074 82.424 82.9914 82.272 82.9594 82.208C82.9434 82.128 82.8634 82.032 82.7194 81.92C82.5754 81.808 82.4634 81.744 82.3834 81.728C82.3034 81.696 82.1194 81.68 81.8314 81.68H77.9914C77.7034 81.68 77.5194 81.696 77.4394 81.728C77.3594 81.744 77.2474 81.808 77.1034 81.92C76.9594 82.032 76.8714 82.128 76.8394 82.208C76.8234 82.272 76.8154 82.424 76.8154 82.664V85.52H83.0074ZM96.2529 89.336V82.664C96.2529 82.424 96.2369 82.272 96.2049 82.208C96.1889 82.128 96.1089 82.032 95.9649 81.92C95.8209 81.808 95.7089 81.744 95.6289 81.728C95.5489 81.696 95.3649 81.68 95.0769 81.68H91.6929C91.3889 81.68 91.1809 81.696 91.0689 81.728C90.9729 81.76 90.7809 81.864 90.4929 82.04C90.2049 82.216 90.0369 82.344 89.9889 82.424C89.9409 82.504 89.9169 82.664 89.9169 82.904V89.096C89.9169 89.336 89.9409 89.496 89.9889 89.576C90.0369 89.656 90.2049 89.784 90.4929 89.96C90.7809 90.136 90.9729 90.24 91.0689 90.272C91.1809 90.304 91.3809 90.32 91.6689 90.32H95.0769C95.3649 90.32 95.5489 90.312 95.6289 90.296C95.7089 90.264 95.8209 90.192 95.9649 90.08C96.1089 89.968 96.1889 89.88 96.2049 89.816C96.2369 89.736 96.2529 89.576 96.2529 89.336ZM89.9169 74.24V81.128H90.0129C90.0129 80.984 90.1889 80.76 90.5409 80.456C90.8929 80.152 91.1969 80 91.4529 80H95.9649C96.3489 80 96.7329 80.16 97.1169 80.48L97.6929 80.96C98.0769 81.28 98.2689 81.68 98.2689 82.16V89.84C98.2689 90.32 98.0769 90.72 97.6929 91.04L97.1169 91.52C96.7329 91.84 96.3489 92 95.9649 92H91.4769C91.1889 92 90.9889 91.984 90.8769 91.952C90.7809 91.92 90.5889 91.816 90.3009 91.64C89.9329 91.464 89.7409 91.288 89.7249 91.112H89.6289V92H87.9009V74.24H89.9169ZM119.695 83.36V89.84C119.695 90.16 119.663 90.384 119.599 90.512C119.551 90.64 119.431 90.808 119.239 91.016L118.807 91.448C118.439 91.816 118.063 92 117.679 92H109.759C109.375 92 108.999 91.816 108.631 91.448L108.199 91.016C108.071 90.872 107.975 90.768 107.911 90.704C107.863 90.624 107.823 90.52 107.791 90.392C107.759 90.248 107.743 90.064 107.743 89.84V84.704C107.743 84.32 107.759 84.08 107.791 83.984C107.839 83.888 107.983 83.744 108.223 83.552L109.207 82.736C109.479 82.512 109.695 82.4 109.855 82.4H110.815V82.304C110.607 82.288 110.391 82.168 110.167 81.944L109.471 81.368C109.263 81.208 109.135 81.088 109.087 81.008C109.055 80.928 109.039 80.752 109.039 80.48V77.36C109.039 76.88 109.231 76.48 109.615 76.16L110.191 75.68C110.575 75.36 110.959 75.2 111.343 75.2H116.767C117.151 75.2 117.535 75.36 117.919 75.68L118.495 76.16C118.879 76.48 119.071 76.88 119.071 77.36V78.32H117.055V77.864C117.055 77.624 117.039 77.472 117.007 77.408C116.991 77.328 116.911 77.232 116.767 77.12C116.623 77.008 116.511 76.944 116.431 76.928C116.351 76.896 116.159 76.88 115.855 76.88H112.231C111.943 76.88 111.759 76.896 111.679 76.928C111.599 76.944 111.487 77.008 111.343 77.12C111.199 77.232 111.111 77.328 111.079 77.408C111.063 77.472 111.055 77.624 111.055 77.864V80.12C111.055 80.424 111.071 80.624 111.103 80.72C111.151 80.8 111.295 80.936 111.535 81.128C111.839 81.384 112.063 81.544 112.207 81.608C112.351 81.656 112.615 81.68 112.999 81.68H121.423V83.36H119.695ZM110.935 90.32H116.503C116.791 90.32 116.975 90.312 117.055 90.296C117.135 90.264 117.247 90.192 117.391 90.08C117.535 89.968 117.615 89.88 117.631 89.816C117.663 89.736 117.679 89.576 117.679 89.336V83.36H111.655C111.351 83.36 111.151 83.376 111.055 83.408C110.959 83.44 110.791 83.56 110.551 83.768L110.191 84.08C109.903 84.336 109.759 84.64 109.759 84.992V89.336C109.759 89.576 109.767 89.736 109.783 89.816C109.815 89.88 109.903 89.968 110.047 90.08C110.191 90.192 110.303 90.264 110.383 90.296C110.463 90.312 110.647 90.32 110.935 90.32ZM130.673 75.2H132.689V92H130.673V75.2ZM138.55 90.584V91.136C138.55 91.376 138.542 91.528 138.526 91.592C138.51 91.656 138.446 91.736 138.334 91.832C138.222 91.944 137.982 92 137.614 92H137.494C137.11 92 136.854 91.944 136.726 91.832C136.598 91.704 136.534 91.472 136.534 91.136V90.584C136.534 90.344 136.542 90.192 136.558 90.128C136.574 90.064 136.638 89.984 136.75 89.888C136.862 89.776 137.11 89.72 137.494 89.72H137.59C137.974 89.72 138.23 89.776 138.358 89.888C138.486 90.016 138.55 90.248 138.55 90.584ZM139.848 75.2H152.52V76.88H147.192V92H145.176V76.88H139.848V75.2ZM155.847 90.584V91.136C155.847 91.376 155.839 91.528 155.823 91.592C155.807 91.656 155.743 91.736 155.631 91.832C155.519 91.944 155.279 92 154.911 92H154.791C154.407 92 154.151 91.944 154.023 91.832C153.895 91.704 153.831 91.472 153.831 91.136V90.584C153.831 90.344 153.839 90.192 153.855 90.128C153.871 90.064 153.935 89.984 154.047 89.888C154.159 89.776 154.407 89.72 154.791 89.72H154.887C155.271 89.72 155.527 89.776 155.655 89.888C155.783 90.016 155.847 90.248 155.847 90.584ZM172.361 85.04C172.745 85.04 173.129 85.2 173.513 85.52L174.089 86C174.473 86.32 174.665 86.72 174.665 87.2V89.84C174.665 90.32 174.473 90.72 174.089 91.04L173.513 91.52C173.129 91.84 172.745 92 172.361 92H167.033C166.649 92 166.265 91.84 165.881 91.52L165.305 91.04C164.921 90.72 164.729 90.32 164.729 89.84V88.88H166.745V89.336C166.745 89.576 166.753 89.736 166.769 89.816C166.801 89.88 166.889 89.968 167.033 90.08C167.177 90.192 167.289 90.264 167.369 90.296C167.449 90.312 167.633 90.32 167.921 90.32H171.473C171.761 90.32 171.945 90.312 172.025 90.296C172.105 90.264 172.217 90.192 172.361 90.08C172.505 89.968 172.585 89.88 172.601 89.816C172.633 89.736 172.649 89.576 172.649 89.336V87.392C172.633 87.264 172.537 87.12 172.361 86.96C172.217 86.848 172.105 86.784 172.025 86.768C171.945 86.736 171.761 86.72 171.473 86.72H167.273C166.889 86.72 166.505 86.56 166.121 86.24L165.545 85.76C165.161 85.44 164.969 85.04 164.969 84.56V82.16C164.969 81.68 165.161 81.28 165.545 80.96L166.121 80.48C166.505 80.16 166.889 80 167.273 80H172.361C172.745 80 173.129 80.16 173.513 80.48L174.089 80.96C174.473 81.28 174.665 81.68 174.665 82.16V83.12H172.649V82.664C172.649 82.424 172.633 82.272 172.601 82.208C172.585 82.128 172.505 82.032 172.361 81.92C172.217 81.808 172.105 81.744 172.025 81.728C171.945 81.696 171.761 81.68 171.473 81.68H168.161C167.873 81.68 167.689 81.696 167.609 81.728C167.529 81.744 167.417 81.808 167.273 81.92C167.129 82.032 167.041 82.128 167.009 82.208C166.993 82.272 166.985 82.424 166.985 82.664V84.056C166.985 84.296 166.993 84.456 167.009 84.536C167.041 84.6 167.129 84.688 167.273 84.8C167.417 84.912 167.529 84.984 167.609 85.016C167.689 85.032 167.873 85.04 168.161 85.04H172.361ZM179.877 80H185.637C186.021 80 186.405 80.16 186.789 80.48L187.365 80.96C187.749 81.28 187.941 81.68 187.941 82.16V89.84C187.941 90.32 187.749 90.72 187.365 91.04L186.789 91.52C186.405 91.84 186.021 92 185.637 92H179.877C179.493 92 179.109 91.84 178.725 91.52L178.149 91.04C177.765 90.72 177.573 90.32 177.573 89.84V82.16C177.573 81.68 177.765 81.28 178.149 80.96L178.725 80.48C179.109 80.16 179.493 80 179.877 80ZM185.925 89.336V82.664C185.925 82.424 185.909 82.272 185.877 82.208C185.861 82.128 185.781 82.032 185.637 81.92C185.493 81.808 185.381 81.744 185.301 81.728C185.221 81.696 185.037 81.68 184.749 81.68H180.765C180.477 81.68 180.293 81.696 180.213 81.728C180.133 81.744 180.021 81.808 179.877 81.92C179.733 82.032 179.645 82.128 179.613 82.208C179.597 82.272 179.589 82.424 179.589 82.664V89.336C179.589 89.576 179.597 89.736 179.613 89.816C179.645 89.88 179.733 89.968 179.877 90.08C180.021 90.192 180.133 90.264 180.213 90.296C180.293 90.312 180.477 90.32 180.765 90.32H184.749C185.037 90.32 185.221 90.312 185.301 90.296C185.381 90.264 185.493 90.192 185.637 90.08C185.781 89.968 185.861 89.88 185.877 89.816C185.909 89.736 185.925 89.576 185.925 89.336ZM190.958 74.24H192.974V89C192.974 89.368 192.99 89.6 193.022 89.696C193.054 89.776 193.166 89.88 193.358 90.008C193.566 90.168 193.686 90.296 193.718 90.392C193.766 90.472 193.79 90.696 193.79 91.064V92H193.07C192.766 92 192.566 91.984 192.47 91.952C192.374 91.92 192.206 91.824 191.966 91.664L191.438 91.304C191.198 91.144 191.054 91.016 191.006 90.92C190.974 90.824 190.958 90.592 190.958 90.224V74.24ZM202.864 92H199.096C198.712 92 198.328 91.84 197.944 91.52L197.368 91.04C196.984 90.72 196.792 90.32 196.792 89.84V80H198.808V89.336C198.808 89.576 198.816 89.736 198.832 89.816C198.864 89.88 198.952 89.968 199.096 90.08C199.24 90.192 199.352 90.264 199.432 90.296C199.512 90.312 199.696 90.32 199.984 90.32H202.576C202.864 90.32 203.056 90.304 203.152 90.272C203.264 90.24 203.464 90.136 203.752 89.96C204.04 89.784 204.208 89.656 204.256 89.576C204.304 89.496 204.328 89.336 204.328 89.096V80H206.344V89.336C206.344 89.576 206.352 89.736 206.368 89.816C206.4 89.88 206.488 89.968 206.632 90.08C206.776 90.192 206.856 90.288 206.872 90.368C206.904 90.432 206.92 90.584 206.92 90.824V92H206.08C205.792 92 205.592 91.984 205.48 91.952C205.384 91.904 205.24 91.8 205.048 91.64C204.792 91.432 204.664 91.232 204.664 91.04H204.568C204.568 91.232 204.392 91.432 204.04 91.64C203.752 91.816 203.552 91.92 203.44 91.952C203.344 91.984 203.152 92 202.864 92ZM212.559 76.64V80H215.631C215.839 80.16 215.959 80.288 215.991 80.384C216.039 80.464 216.063 80.688 216.063 81.056V81.68H212.559V89.336C212.559 89.576 212.567 89.736 212.583 89.816C212.615 89.88 212.703 89.968 212.847 90.08C212.991 90.192 213.103 90.264 213.183 90.296C213.263 90.312 213.447 90.32 213.735 90.32H215.919C216.127 90.48 216.247 90.608 216.279 90.704C216.327 90.784 216.351 91.008 216.351 91.376V92H212.847C212.463 92 212.079 91.84 211.695 91.52L211.119 91.04C210.735 90.72 210.543 90.32 210.543 89.84V81.68H209.391C209.183 81.52 209.055 81.4 209.007 81.32C208.975 81.224 208.959 80.992 208.959 80.624V80H210.543V76.64H212.559ZM220.982 92H218.966V80H220.982V92ZM221.198 76.256V76.448C221.198 76.752 221.182 76.944 221.15 77.024C221.134 77.104 221.062 77.2 220.934 77.312C220.806 77.44 220.51 77.504 220.046 77.504H219.926C219.574 77.504 219.358 77.496 219.278 77.48C219.198 77.464 219.102 77.408 218.99 77.312C218.878 77.2 218.806 77.104 218.774 77.024C218.758 76.944 218.75 76.752 218.75 76.448V76.256C218.75 75.952 218.758 75.76 218.774 75.68C218.806 75.6 218.886 75.504 219.014 75.392C219.11 75.296 219.198 75.24 219.278 75.224C219.358 75.208 219.574 75.2 219.926 75.2H220.022C220.502 75.2 220.814 75.264 220.958 75.392C221.07 75.504 221.134 75.6 221.15 75.68C221.182 75.76 221.198 75.952 221.198 76.256ZM226.284 80H232.044C232.428 80 232.812 80.16 233.196 80.48L233.772 80.96C234.156 81.28 234.348 81.68 234.348 82.16V89.84C234.348 90.32 234.156 90.72 233.772 91.04L233.196 91.52C232.812 91.84 232.428 92 232.044 92H226.284C225.9 92 225.516 91.84 225.132 91.52L224.556 91.04C224.172 90.72 223.98 90.32 223.98 89.84V82.16C223.98 81.68 224.172 81.28 224.556 80.96L225.132 80.48C225.516 80.16 225.9 80 226.284 80ZM232.332 89.336V82.664C232.332 82.424 232.316 82.272 232.284 82.208C232.268 82.128 232.188 82.032 232.044 81.92C231.9 81.808 231.788 81.744 231.708 81.728C231.628 81.696 231.444 81.68 231.156 81.68H227.172C226.884 81.68 226.7 81.696 226.62 81.728C226.54 81.744 226.428 81.808 226.284 81.92C226.14 82.032 226.052 82.128 226.02 82.208C226.004 82.272 225.996 82.424 225.996 82.664V89.336C225.996 89.576 226.004 89.736 226.02 89.816C226.052 89.88 226.14 89.968 226.284 90.08C226.428 90.192 226.54 90.264 226.62 90.296C226.7 90.312 226.884 90.32 227.172 90.32H231.156C231.444 90.32 231.628 90.312 231.708 90.296C231.788 90.264 231.9 90.192 232.044 90.08C232.188 89.968 232.268 89.88 232.284 89.816C232.316 89.736 232.332 89.576 232.332 89.336ZM237.245 80H238.085C238.373 80 238.565 80.024 238.661 80.072C238.773 80.104 238.925 80.2 239.117 80.36C239.373 80.568 239.501 80.768 239.501 80.96H239.597C239.597 80.768 239.773 80.568 240.125 80.36C240.413 80.184 240.605 80.08 240.701 80.048C240.813 80.016 241.013 80 241.301 80H245.549C245.933 80 246.317 80.16 246.701 80.48L247.277 80.96C247.661 81.28 247.853 81.68 247.853 82.16V92H245.837V82.664C245.837 82.424 245.821 82.272 245.789 82.208C245.773 82.128 245.693 82.032 245.549 81.92C245.405 81.808 245.293 81.744 245.213 81.728C245.133 81.696 244.949 81.68 244.661 81.68H241.589C241.301 81.68 241.101 81.696 240.989 81.728C240.893 81.76 240.701 81.864 240.413 82.04C240.125 82.216 239.957 82.344 239.909 82.424C239.861 82.504 239.837 82.664 239.837 82.904V92H237.821V82.664C237.821 82.424 237.805 82.272 237.773 82.208C237.757 82.128 237.677 82.032 237.533 81.92C237.389 81.808 237.301 81.72 237.269 81.656C237.253 81.576 237.245 81.416 237.245 81.176V80ZM258.353 85.04C258.737 85.04 259.121 85.2 259.505 85.52L260.081 86C260.465 86.32 260.657 86.72 260.657 87.2V89.84C260.657 90.32 260.465 90.72 260.081 91.04L259.505 91.52C259.121 91.84 258.737 92 258.353 92H253.025C252.641 92 252.257 91.84 251.873 91.52L251.297 91.04C250.913 90.72 250.721 90.32 250.721 89.84V88.88H252.737V89.336C252.737 89.576 252.745 89.736 252.761 89.816C252.793 89.88 252.881 89.968 253.025 90.08C253.169 90.192 253.281 90.264 253.361 90.296C253.441 90.312 253.625 90.32 253.913 90.32H257.465C257.753 90.32 257.937 90.312 258.017 90.296C258.097 90.264 258.209 90.192 258.353 90.08C258.497 89.968 258.577 89.88 258.593 89.816C258.625 89.736 258.641 89.576 258.641 89.336V87.392C258.625 87.264 258.529 87.12 258.353 86.96C258.209 86.848 258.097 86.784 258.017 86.768C257.937 86.736 257.753 86.72 257.465 86.72H253.265C252.881 86.72 252.497 86.56 252.113 86.24L251.537 85.76C251.153 85.44 250.961 85.04 250.961 84.56V82.16C250.961 81.68 251.153 81.28 251.537 80.96L252.113 80.48C252.497 80.16 252.881 80 253.265 80H258.353C258.737 80 259.121 80.16 259.505 80.48L260.081 80.96C260.465 81.28 260.657 81.68 260.657 82.16V83.12H258.641V82.664C258.641 82.424 258.625 82.272 258.593 82.208C258.577 82.128 258.497 82.032 258.353 81.92C258.209 81.808 258.097 81.744 258.017 81.728C257.937 81.696 257.753 81.68 257.465 81.68H254.153C253.865 81.68 253.681 81.696 253.601 81.728C253.521 81.744 253.409 81.808 253.265 81.92C253.121 82.032 253.033 82.128 253.001 82.208C252.985 82.272 252.977 82.424 252.977 82.664V84.056C252.977 84.296 252.985 84.456 253.001 84.536C253.033 84.6 253.121 84.688 253.265 84.8C253.409 84.912 253.521 84.984 253.601 85.016C253.681 85.032 253.865 85.04 254.153 85.04H258.353Z" fill="white"/>
<defs>
<filter id="filter0_d_1206_18488" x="0" y="0" width="314" height="116" filterUnits="userSpaceOnUse" color-interpolation-filters="sRGB">
<feFlood flood-opacity="0" result="BackgroundImageFix"/>
<feColorMatrix in="SourceAlpha" type="matrix" values="0 0 0 0 0 0 0 0 0 0 0 0 0 0 0 0 0 0 127 0" result="hardAlpha"/>
<feOffset dy="4"/>
<feGaussianBlur stdDeviation="2"/>
<feComposite in2="hardAlpha" operator="out"/>
<feColorMatrix type="matrix" values="0 0 0 0 0 0 0 0 0 0 0 0 0 0 0 0 0 0 0.25 0"/>
<feBlend mode="normal" in2="BackgroundImageFix" result="effect1_dropShadow_1206_18488"/>
<feBlend mode="normal" in="SourceGraphic" in2="effect1_dropShadow_1206_18488" result="shape"/>
</filter>
<filter id="filter1_b_1206_18488" x="6.64001" y="19.48" width="301.144" height="43.52" filterUnits="userSpaceOnUse" color-interpolation-filters="sRGB">
<feFlood flood-opacity="0" result="BackgroundImageFix"/>
<feGaussianBlur in="BackgroundImageFix" stdDeviation="2"/>
<feComposite in2="SourceAlpha" operator="in" result="effect1_backgroundBlur_1206_18488"/>
<feBlend mode="normal" in="SourceGraphic" in2="effect1_backgroundBlur_1206_18488" result="shape"/>
</filter>
</defs>
</svg>
